<?xml version="1.0" encoding="utf-8"?>
<!-- Uploaded to: SVG Repo, www.svgrepo.com, Generator: SVG Repo Mixer Tools -->
<svg fill="#000000" width="800px" height="800px" viewBox="0 0 32 32" version="1.1" xmlns="http://www.w3.org/2000/svg">
<title>unplugged</title>
<path d="M12.25 8.71c-3.824 0-6.979 2.864-7.442 6.562h-3.809v1.875h3.809c0.463 3.698 3.618 6.562 7.442 6.562h0.937c0.519 0 0.937-0.418 0.937-0.937v-1.875h2.813v-1.875h-2.813v-5.625h2.813v-1.875h-2.813v-1.875c0-0.519-0.418-0.937-0.937-0.937l-0.937 0.001zM25.375 8.71c-0.519 0-0.937 0.418-0.937 0.937v1.875h1.875v1.875h-1.875v5.625h1.875v1.875h-1.875v1.875c0 0.519 0.418 0.937 0.937 0.937h5.625v-15l-5.625-0.001z"></path>
</svg>